<?xml version="1.0" encoding="UTF-8"?><svg id="uuid-7c4b8670-c4f3-411f-9d4f-5787e24381a2" xmlns="http://www.w3.org/2000/svg" viewBox="0 0 216 216"><path d="m173.33,52.12v69.63c.02,2.05-.65,2.4-2.56,2.4H45.81c-1.95,0-2.54-.41-2.54-2.42V52.1c0-1.95.65-2.29,2.45-2.27h125.18c1.82-.02,2.43.37,2.43,2.29Z" style="stroke-width:0px;"/><path d="m23.45,173.91c-5.09,0-6.73-2.7-4.44-7.3l15.02-30.09c.68-1.37,1.46-1.92,3.04-1.92h141.78c1.56,0,2.38.49,3.06,1.88l15.22,30.52c2.07,4.16.31,6.9-4.35,6.9H23.45Zm159.95-17.5c2.71,0,2.81-.15,1.6-2.57-2.24-4.49-4.56-8.93-6.69-13.47-.77-1.64-1.64-2.26-3.53-2.26-44.57.06-89.15.06-133.72.02-1.6,0-2.53.39-3.25,1.93-2.16,4.61-4.51,9.13-6.78,13.69-1.27,2.55-1.19,2.66,1.7,2.66h150.68Z" style="stroke-width:0px;"/><path d="m37.58,131.92c-2.05,0-2.63-.49-2.62-2.59,0,0,.05-53.65.05-80.47,0-4.67,2.08-6.77,6.71-6.77h132.56c4.62,0,6.69,2.1,6.69,6.79l.05,80.47c0,2.13-.62,2.58-2.64,2.57,0,0-117.41-.07-140.8,0Zm5.55-84.24c-1.87,0-2.54.35-2.54,2.4v73.65c-.01,2.13.6,2.57,2.63,2.57h129.5c1.99,0,2.67-.37,2.66-2.54V50.1c0-2.03-.63-2.43-2.52-2.42H43.13Z" style="stroke-width:0px;"/><path d="m175.25,152.82l-135.52.42c-1.57,0-2.59-1.66-1.88-3.06l3.95-7.77c.36-.7,1.08-1.15,1.87-1.15h128.65c.86,0,1.64.53,1.95,1.33l2.91,7.35c.55,1.38-.47,2.87-1.95,2.88Z" style="stroke-width:0px;"/><path d="m125.5,168.95h-36.33c-.77,0-1.35-.69-1.22-1.44l.91-5.52c.1-.6.62-1.04,1.22-1.04h34.84c.64,0,1.17.48,1.23,1.11l.58,5.52c.08.73-.5,1.37-1.23,1.37Z" style="fill:#fff; stroke-width:0px;"/><text transform="translate(46.62 57.36)" style="font-family:CourierNewPSMT, &apos;Courier New&apos;; font-size:4.87px;"><tspan x="0" y="0" style="fill:#5bba5e;">In [1]: from</tspan><tspan x="35.07" y="0" style="fill:#9acf8a;"> </tspan><tspan x="38" y="0" style="fill:#9f74b2;">microscopy</tspan><tspan x="67.23" y="0" style="fill:#9acf8a;"> </tspan><tspan x="70.15" y="0" style="fill:#5bba5e;">import</tspan><tspan x="87.69" y="0" style="fill:#9acf8a;"> </tspan><tspan x="90.61" y="0" style="fill:#fff;">analysis</tspan></text><text transform="translate(46.62 66.65)" style="font-family:CourierNewPSMT, &apos;Courier New&apos;; font-size:4.87px;"><tspan x="0" y="0" style="fill:#5bba5e;">In [2]:</tspan><tspan x="20.46" y="0" style="fill:#9acf8a;"> </tspan><tspan x="23.38" y="0" style="fill:#fff;">img =</tspan><tspan x="38" y="0" style="fill:#9acf8a;"> </tspan><tspan x="40.92" y="0" style="fill:#fff;">analysis.</tspan><tspan x="67.23" y="0" style="fill:#61bcc6;">imread</tspan><tspan x="84.76" y="0" style="fill:#fff;">(</tspan><tspan x="87.69" y="0" style="fill:#fcb216;">”bobiac.tif”</tspan><tspan x="122.76" y="0" style="fill:#fff;">)</tspan></text><rect x="70.35" y="112.85" width="2.35" height="4.88" style="fill:#424142; stroke-width:0px;"/><text transform="translate(46.62 116.52)" style="fill:#5bba5e; font-family:CourierNewPSMT, &apos;Courier New&apos;; font-size:4.87px;"><tspan x="0" y="0">In [4]:</tspan></text><text transform="translate(46.62 75.95)" style="font-family:CourierNewPSMT, &apos;Courier New&apos;; font-size:4.87px;"><tspan x="0" y="0" style="fill:#5bba5e;">In [3]:</tspan><tspan x="20.46" y="0" style="fill:#9acf8a;"> </tspan><tspan x="23.38" y="0" style="fill:#fff;">analysis.</tspan><tspan x="49.69" y="0" style="fill:#61bcc6;">imshow</tspan><tspan x="67.23" y="0" style="fill:#fff;">(img)</tspan></text><polygon points="108.54 107.47 108.54 107.49 108.23 107.49 106.87 107.47 106.87 107.46 108.23 107.47 108.54 107.47" style="fill:#5bba5e; stroke:#fff; stroke-miterlimit:10; stroke-width:.1px;"/><polygon points="108.43 86.88 108.43 95 108.34 95 108.34 86.9 108.43 86.88" style="fill:#5bba5e; stroke:#fff; stroke-miterlimit:10; stroke-width:.1px;"/><rect x="108.34" y="86.85" width=".09" height="8.15" style="fill:#5bba5e; stroke:#fff; stroke-miterlimit:10; stroke-width:.1px;"/><rect x="108.23" y="107.47" width=".31" height=".02" style="fill:#5bba5e; stroke:#fff; stroke-miterlimit:10; stroke-width:.1px;"/><path d="m154.5,107.07c-.01.32,0,.64,0,.96l-45.96-.54v-.02h-1.67s-45.37-.17-45.37-.17c0-.36.01-2.63,0-3,0-.15.02-.26.2-.3.18-.05.35-.15.53-.21.19-.06.27-.15.26-.36-.01-.57,0-1.14,0-1.72-.01-.17.06-.23.23-.23h1.31c.15,0,.22.06.21.21,0,.15.01.3,0,.45-.01.18.06.24.24.24.33-.01.67,0,1,0,.24,0,.28.04.28.28v.66c.01.16-.03.33.05.5.07,0,.15,0,.23,0h1.56c.26,0,.28.02.28.28v3c0,.13.06.19.19.19.16-.01.32.02.47-.02.09-.24.05-.49.07-.73.05-.89.12-1.78.17-2.67.03-.66.04-1.32.09-1.97.02-.27.02-.54.04-.82.03-.64.09-1.28.12-1.92.04-.65.05-1.3.09-1.95.06-.75.12-1.49.12-2.24.01-.55.26-.95.65-1.29,0,0,.38.36.49.6.18.21.13.49.14.73.06,1,.11,2.01.18,3.02.02.33.03.67.05,1,.04.7.06,1.4.12,2.1.02.27.02.55.04.83.05.64.06,1.27.09,1.91.04.64.11,1.28.12,1.92,0,.36.06.73.05,1.09,0,.13.01.26.08.39.03,0,.07.02.12.02.23,0,.33.03.32-.3,0-.24.01-.47,0-.71-.01-.16.05-.25.2-.27.21-.03.27-.15.26-.35-.01-.28.02-2.99.02-3.57,0-.1-.06-.23-.01-.29.08-.1.22-.14.35-.18.94-.36,1.88-.72,2.83-1.07.15-.05.19-.13.19-.28-.02-.24.02-.49-.05-.73,0-.02-.02-.04-.02-.06.16-.42.08-.86.08-1.28,0-.34.52-.88.78-1.04,0,0,.4.21.53.39.07.09.14.16.18.26.06.13.09.23.07.39-.04.36-.02.74-.01,1.11,0,.06.05.11.08.17l-.04.19c0,.22,0,.43,0,.64-.01.14.05.2.17.24.52.19,1.03.38,1.54.58.51.19,1.01.39,1.52.57.15.06.2.15.2.3s-.08.28-.09.41c-.01.57,0,1.14,0,1.71,0,.13.12.23.08.37-.08.31-.03.64-.04.96-.01.47-.01.42.45.43.17,0,.24-.07.24-.24,0-.36,0-.71,0-1.07,0-.17.07-.25.24-.23.35.02.32-.09.32-.33v-12.51c.01-.23.13-.38.34-.45.07-.02.14-.02.2-.04.09-.04.21-.08.18-.21-.04-.2,0-.39-.07-.59-.11-.32.01-.47.34-.55.23-.05.44-.15.64-.29.31-.23.64-.43.96-.65.12-.09.23-.12.37,0,.22.17.47.31.7.47.29.2.58.41.94.49.13.03.29.02.32.2.01.12.03.26-.02.38-.19.45-.08.68.36.81.03.01.05.02.07.02.12.01.15.09.15.2.02.91-.07,1.83.08,2.73v10.36h1.01c0-3.71.02-7.74.02-11.45v-.12c0-.14.06-.2.19-.2h.73c.13,0,.2.06.19.2v.17c0,.31.03.34.34.34h3.45c.1,0,.2.01.3-.04.04-.15.02-.3.02-.45,0-.16.06-.22.21-.22.22.01.43.01.65,0,.26-.01.3.03.3.3-.01,1.66-.01,3.31-.01,4.97v4.25c0,.28.01.56,0,.84v.61c.28.09.48.23.48.5v.49c0,.37.07.45.44.49.07,0,.13,0,.19,0,.05-.1.05-.21.05-.32,0-.2.01-.4,0-.6-.01-.14.06-.24.17-.25.41-.01.53-.23.47-.6-.01-.1.04-.2.13-.19.28.02.26-.16.26-.35v-14.97c0-.46-.08-.49.45-.47.13,0,.19-.05.23-.17.04-.11.02-.17.02-.28v-.02c-.05-.02-.1-.04-.15-.04-.24,0-.26-.06-.26-.28,0-.22.02-.44-.03-.66.16-.07,1.73-.05,2.05-.05.32-.01.66.1.94-.17.14.03.24-.06.33-.14v-4.93h.19v4.97c.09.08.2.13.33.1.04,0,.1,0,.11.02.09.2.27.15.43.15.7,0,1.41-.01,2.12-.02.05,0,.11-.01.17,0,.11.03.21.06.18.24-.04.17-.02.35-.01.53,0,.15-.05.22-.22.23-.07.01-.14.04-.21.06v.16c.02.22.1.3.32.3.43-.01.41-.01.41.4v13.65c0,.3.02.33.32.33h2.07s.19-14.36.19-14.36c.03-.06.09-.08.24-.12l1.12-.29.11-.03-.16,18.18h.09l.16-18.2.07-.02h.04l6.43.39c.32.02.36.05.36.37v17.16c0,.1-.01.21.05.3.12.04.25.02.38.02.11.01.19-.08.19-.19v-.38c0-.16.13-.28.28-.28h3.46c.16,0,.28.12.28.28v.92c.15.08.28.08.41,0,.01-.04.02-.08.02-.12v-1.69c0-.11-.03-.21-.01-.32.06-.31.05-.62.01-.92-.01-.07-.03-.12,0-.2.1-.23-.02-.52.17-.74.02-.03,0-.07,0-.11,0-.16.01-.31,0-.47-.01-.19.04-.38-.02-.56-.08-.19-.04-.33.11-.42,0-.11-.02-.2.02-.28.16-.3.18-.64.28-.96.02-.08.08-.18.1-.26.03-.13.22-.15.28-.02.07.13.1.31.13.4.08.27.09.56.23.82.05.09.02.2.03.3,0,0,.23.11.11.4-.03.05-.03.12-.03.17v.84c0,.09-.01.19.05.25.13.15.11.32.13.5.03.19.01.38-.01.57-.03.36.03.72.01,1.07-.03.97,0,1.94-.01,2.91,0,.19.08.26.3.24.25-.03.51-.04.77-.01.22.03.31-.04.3-.23-.01-.96.01-1.92-.01-2.89-.03-1.46-.02-2.92-.03-4.38,0-.07-.01-.16.07-.19.19-.07.16-.24.17-.39,0-.09-.04-.22.06-.27.15-.07.15-.18.15-.31,0-.11-.02-.23.02-.3.08-.07.14-.06.19-.06q.28,0,.35-.28c.06-.27.18-.51.37-.73.26-.29.67-.38.92-.66,0,0,.13.23.38.32.53.19.8.6.9,1.12.04.2.12.24.29.23.25,0,.28.02.28.26,0,.13.07.31.15.41.09.11.06.25.06.38,0,.12.01.23.13.28.1.03.09.11.09.19-.02,1.08,0,2.15-.02,3.23-.03,1.45.02,2.89-.03,4.34,0,.17.07.24.24.24.31-.01.63,0,.94,0,.16,0,.28-.13.28-.28v-2.61c0-.12.02-.21.1-.3.2-.21.37-.45.56-.66.21-.24.39-.51.65-.74.38.35.75.7,1.13,1.04.07.05.04.12.04.19v1.19c.18.07.34.07.51,0,0-.31.01-.62,0-.93,0-.19.07-.25.26-.24.41.02.82.02,1.23,0,.14-.01.28,0,.42.07.02.24.07.5.06.74-.04.62.16,1.18.32,1.76.05.17.14.22.3.21h1.37c.19,0,.34-.15.34-.34v-4.77c0-.28.04-.33.3-.39.07-.01.15-.02.22-.02.46.04.82-.22,1.22-.38.09-.04.14-.12.1-.19-.16-.3.1-.46.23-.62.15-.11.27-.13.42-.07.11.04.19.12.23.22.07.14.15.34.11.42-.06.13-.01.21.11.26.27.11.54.23.81.34.11.05.23.02.34.02.06,0,.13,0,.19,0,.33.05.37.1.37.43,0,1.39,0,2.78-.01,4.17,0,.18.02.34.15.48.03.03.08.07.09.12.12.43.45.37.77.37.09-.01.14-.06.17-.12.08-.16.2-.3.31-.44.08-.11.11-.23.1-.37-.02-.35.04-.7-.08-1.05-.05-.15.1-.29.31-.29.59-.01,1.17-.01,1.76,0,.33,0,.46-.06.51-.43.08-.04.17-.05.26-.04.28,0,.56,0,.83-.01.19,0,.37-.15.34-.34-.06-.39.11-.6.45-.72.14-.05.19-.15.25-.28.12-.32.27-.63.61-.82.2-.12.36-.31.26-.6-.03-.1.14-.27.25-.27.12,0,.25.15.21.27-.08.27.04.44.24.56.35.2.55.52.66.88.06.17.2.26.33.31.27.11.37.28.35.57-.03.34.09.44.44.45.32.01.64-.05.96.03,0,0,.16.44.56.44.55,0,1.1,0,1.64-.01.21,0,.37.03.44.24-.05.18-.09.36-.08.56.01.42.03.85-.01,1.28-.01.1.01.2.08.28.1.09.11.21.11.34Z" style="fill:#5bba5e; stroke:#fff; stroke-miterlimit:10; stroke-width:.1px;"/></svg>