<?xml version="1.0" encoding="UTF-8"?><svg id="uuid-ef0ae3ed-d578-4d12-882f-f92e27c6051d" xmlns="http://www.w3.org/2000/svg" viewBox="0 0 348.9 127.06"><path d="m11.18,28.83h18.52c10.21,0,15.58,5.8,15.58,13.85,0,6.68-3.71,11.03-8.09,12.32,3.78,1.13,9.98,5.07,9.98,13.93,0,11.19-7.86,16.26-17.16,16.26H11.18V28.83Zm17.16,24.23c9.07,0,12.48-3.62,12.48-10.06,0-5.56-3.55-9.98-10.89-9.98h-14.59v20.05h13Zm-13,28.02h14.74c6.96,0,12.7-3.7,12.7-11.91,0-7.17-4.23-12-14.82-12h-12.63v23.91Z" style="fill:#231f20; stroke-width:0px;"/><path d="m88.68,64.98c0,11.19-5.82,21.17-17.09,21.17-10.28,0-16.63-8.94-16.63-21.09s5.97-21.09,17.01-21.09c10.06,0,16.71,8.37,16.71,21.01Zm-29.56.08c0,9.5,4.76,17.23,12.78,17.23s12.63-7.16,12.63-17.23c0-9.5-4.46-17.23-12.78-17.23s-12.63,7.57-12.63,17.23Z" style="fill:#231f20; stroke-width:0px;"/><path d="m187.05,28.83h18.52c10.21,0,15.58,5.8,15.58,13.85,0,6.68-3.71,11.03-8.09,12.32,3.78,1.13,9.98,5.07,9.98,13.93,0,11.19-7.86,16.26-17.16,16.26h-18.83V28.83Zm17.16,24.23c9.07,0,12.48-3.62,12.48-10.06,0-5.56-3.55-9.98-10.89-9.98h-14.59v20.05h13Zm-13,28.02h14.74c6.96,0,12.7-3.7,12.7-11.91,0-7.17-4.23-12-14.82-12h-12.63v23.91Z" style="fill:#231f20; stroke-width:0px;"/><path d="m259.7,65.86l-6.65,19.32h-4.31l19.36-56.35h5.07l20.19,56.35h-4.61l-6.8-19.32h-22.23Zm20.87-4.19c-5.9-16.58-8.85-24.63-9.98-28.5h-.08c-1.29,4.35-4.61,14.25-9.38,28.5h19.43Z" style="fill:#231f20; stroke-width:0px;"/><path d="m341.88,70.05c-2.5,9.02-8.7,15.78-19.96,15.78-15.2,0-23.21-12.88-23.21-28.74s7.86-29.06,23.29-29.06c11.49,0,18.22,6.84,19.96,16.26h-4.23c-2.42-7.25-6.8-12.08-15.95-12.08-13.08,0-18.52,12.72-18.52,24.8s5.37,24.71,18.83,24.71c8.62,0,12.93-4.83,15.58-11.67h4.23Z" style="fill:#231f20; stroke-width:0px;"/><path d="m11.44,92.17h4.65c2.57,0,3.91,1.37,3.91,3.27,0,1.58-.93,2.6-2.03,2.91.95.27,2.51,1.2,2.51,3.29,0,2.64-1.98,3.84-4.31,3.84h-4.73v-13.3Zm4.31,5.72c2.28,0,3.13-.85,3.13-2.37,0-1.31-.89-2.36-2.74-2.36h-3.67v4.73h3.27Zm-3.27,6.61h3.71c1.75,0,3.19-.87,3.19-2.81,0-1.69-1.06-2.83-3.72-2.83h-3.17v5.64Z" style="fill:#231f20; stroke-width:0px;"/><path d="m31.07,100.7c0,2.64-1.46,5-4.29,5-2.58,0-4.18-2.11-4.18-4.98s1.5-4.98,4.27-4.98c2.53,0,4.2,1.98,4.2,4.96Zm-7.43.02c0,2.24,1.2,4.07,3.21,4.07s3.17-1.69,3.17-4.07c0-2.24-1.12-4.07-3.21-4.07s-3.17,1.79-3.17,4.07Z" style="fill:#231f20; stroke-width:0px;"/><path d="m33.8,102.84c.32,1.22,1.2,1.96,2.68,1.96,1.67,0,2.36-.78,2.36-1.82s-.46-1.6-2.56-2.11c-2.47-.59-3.08-1.35-3.08-2.6s.99-2.53,3.15-2.53,3.19,1.31,3.34,2.66h-.99c-.17-.8-.8-1.77-2.39-1.77s-2.11.8-2.11,1.56c0,.85.46,1.29,2.32,1.75,2.7.65,3.36,1.54,3.36,2.96,0,1.71-1.41,2.79-3.42,2.79-2.19,0-3.4-1.14-3.67-2.85h1.01Z" style="fill:#231f20; stroke-width:0px;"/><path d="m40.91,95.97h1.77v-2.96h.99v2.96h2.26v.91h-2.26v6.14c0,1.06.23,1.67,1.14,1.67.29,0,.68-.02.97-.11v.85c-.32.13-.78.17-1.18.17-1.23,0-1.92-.63-1.92-2.15v-6.57h-1.77v-.91Z" style="fill:#231f20; stroke-width:0px;"/><path d="m55.61,100.7c0,2.64-1.46,5-4.29,5-2.58,0-4.18-2.11-4.18-4.98s1.5-4.98,4.27-4.98c2.53,0,4.2,1.98,4.2,4.96Zm-7.43.02c0,2.24,1.2,4.07,3.21,4.07s3.17-1.69,3.17-4.07c0-2.24-1.12-4.07-3.21-4.07s-3.17,1.79-3.17,4.07Z" style="fill:#231f20; stroke-width:0px;"/><path d="m58.12,98.36c0-.84,0-1.63-.02-2.39h.97c.04.3.06,1.52.04,1.79.42-.97,1.2-2.01,3.13-2.01,1.71,0,3.19.95,3.19,3.57v6.16h-.99v-6c0-1.67-.68-2.77-2.34-2.77-2.22,0-3,1.86-3,3.91v4.86h-.99v-7.1Z" style="fill:#231f20; stroke-width:0px;"/><path d="m74.1,92.17h4.65c2.57,0,3.91,1.37,3.91,3.27,0,1.58-.93,2.6-2.03,2.91.95.27,2.51,1.2,2.51,3.29,0,2.64-1.98,3.84-4.31,3.84h-4.73v-13.3Zm4.31,5.72c2.28,0,3.13-.85,3.13-2.37,0-1.31-.89-2.36-2.74-2.36h-3.67v4.73h3.27Zm-3.27,6.61h3.71c1.75,0,3.19-.87,3.19-2.81,0-1.69-1.06-2.83-3.72-2.83h-3.17v5.64Z" style="fill:#231f20; stroke-width:0px;"/><path d="m98.69,100.7c0,2.64-1.46,5-4.29,5-2.58,0-4.18-2.11-4.18-4.98s1.5-4.98,4.27-4.98c2.53,0,4.2,1.98,4.2,4.96Zm-7.43.02c0,2.24,1.2,4.07,3.21,4.07s3.17-1.69,3.17-4.07c0-2.24-1.12-4.07-3.21-4.07s-3.17,1.79-3.17,4.07Z" style="fill:#231f20; stroke-width:0px;"/><path d="m106.29,98.42c0-.82,0-1.71-.02-2.45h.97c.02.3.06,1.12.04,1.67.4-.95,1.27-1.9,2.85-1.9,1.33,0,2.36.67,2.74,1.86.47-.99,1.42-1.86,3.1-1.86,1.48,0,2.98.84,2.98,3.48v6.25h-.99v-6.14c0-1.27-.46-2.64-2.2-2.64s-2.64,1.46-2.64,3.31v5.47h-.99v-6.12c0-1.37-.4-2.66-2.15-2.66s-2.7,1.61-2.7,3.55v5.22h-.99v-7.05Z" style="fill:#231f20; stroke-width:0px;"/><path d="m128.65,103.64c0,.84.08,1.52.13,1.82h-.95c-.08-.23-.13-.65-.17-1.44-.32.68-1.16,1.67-3.12,1.67-2.2,0-3.15-1.42-3.15-2.85,0-2.09,1.62-3.06,4.46-3.06h1.8v-.95c0-.95-.29-2.2-2.43-2.2-1.9,0-2.18.99-2.39,1.77h-.99c.11-1.06.76-2.66,3.4-2.66,2.17,0,3.4.91,3.4,3v4.9Zm-.97-3.02h-1.86c-2.09,0-3.38.55-3.38,2.18,0,1.18.84,1.99,2.17,1.99,2.7,0,3.08-1.8,3.08-3.84v-.34Z" style="fill:#231f20; stroke-width:0px;"/><path d="m139.21,104.8c0,3.04-1.35,4.65-4.12,4.65-2.51,0-3.51-1.41-3.74-2.83h1.01c.34,1.29,1.41,1.92,2.77,1.92,2.45,0,3.13-1.6,3.13-3.99v-.99c-.51,1.23-1.44,1.9-3.17,1.9-2.22,0-3.93-1.82-3.93-4.75,0-3.19,1.82-4.98,4.07-4.98,1.94,0,2.77.89,3.04,1.65.02-.55.04-1.2.06-1.42h.93c0,.34-.04,1.84-.04,2.75v6.08Zm-4.01-.27c2.36,0,3.08-1.56,3.08-4.01s-.76-3.88-3.02-3.88-3.06,1.86-3.06,4.03,1.2,3.86,3,3.86Z" style="fill:#231f20; stroke-width:0px;"/><path d="m142.71,100.83c.02,2.43,1.23,3.95,3.06,3.95s2.38-1.01,2.7-1.79h1.03c-.4,1.25-1.42,2.7-3.76,2.7-2.91,0-4.03-2.49-4.03-4.9,0-2.74,1.35-5.05,4.14-5.05s3.86,2.51,3.86,4.31c0,.27,0,.53-.02.78h-6.97Zm5.96-.85c-.02-1.86-1.03-3.32-2.87-3.32-1.96,0-2.83,1.35-3.04,3.32h5.91Z" style="fill:#231f20; stroke-width:0px;"/><path d="m158.95,100.91l-1.67,4.56h-1.08l4.86-13.3h1.27l5.07,13.3h-1.16l-1.71-4.56h-5.59Zm5.24-.99c-1.48-3.91-2.22-5.81-2.51-6.72h-.02c-.32,1.03-1.16,3.36-2.36,6.72h4.88Z" style="fill:#231f20; stroke-width:0px;"/><path d="m169.61,98.36c0-.84,0-1.63-.02-2.39h.97c.04.3.06,1.52.04,1.79.42-.97,1.2-2.01,3.13-2.01,1.71,0,3.19.95,3.19,3.57v6.16h-.99v-6c0-1.67-.68-2.77-2.34-2.77-2.22,0-3,1.86-3,3.91v4.86h-.99v-7.1Z" style="fill:#231f20; stroke-width:0px;"/><path d="m186.64,103.64c0,.84.08,1.52.13,1.82h-.95c-.08-.23-.13-.65-.17-1.44-.32.68-1.16,1.67-3.12,1.67-2.2,0-3.15-1.42-3.15-2.85,0-2.09,1.62-3.06,4.46-3.06h1.8v-.95c0-.95-.29-2.2-2.43-2.2-1.9,0-2.18.99-2.39,1.77h-.99c.11-1.06.76-2.66,3.4-2.66,2.17,0,3.4.91,3.4,3v4.9Zm-.97-3.02h-1.86c-2.09,0-3.38.55-3.38,2.18,0,1.18.84,1.99,2.17,1.99,2.7,0,3.08-1.8,3.08-3.84v-.34Z" style="fill:#231f20; stroke-width:0px;"/><path d="m189.9,105.46v-14h.99v14h-.99Z" style="fill:#231f20; stroke-width:0px;"/><path d="m194.12,95.97c1.9,5.38,2.74,7.64,3.06,8.66h.02c.38-1.16,1.12-3.36,2.96-8.66h1.03l-3.57,10.05c-1.01,2.81-1.69,3.44-3.42,3.44-.34,0-.57-.02-.87-.06v-.99c.29.04.55.06.86.06,1.35,0,1.79-.65,2.49-2.58l-3.63-9.92h1.08Z" style="fill:#231f20; stroke-width:0px;"/><path d="m203.45,102.84c.32,1.22,1.2,1.96,2.68,1.96,1.67,0,2.36-.78,2.36-1.82s-.46-1.6-2.56-2.11c-2.47-.59-3.08-1.35-3.08-2.6s.99-2.53,3.15-2.53,3.19,1.31,3.34,2.66h-.99c-.17-.8-.8-1.77-2.39-1.77s-2.11.8-2.11,1.56c0,.85.46,1.29,2.32,1.75,2.7.65,3.36,1.54,3.36,2.96,0,1.71-1.41,2.79-3.42,2.79-2.19,0-3.4-1.14-3.67-2.85h1.01Z" style="fill:#231f20; stroke-width:0px;"/><path d="m217.17,102.84c.32,1.22,1.2,1.96,2.68,1.96,1.67,0,2.36-.78,2.36-1.82s-.46-1.6-2.56-2.11c-2.47-.59-3.08-1.35-3.08-2.6s.99-2.53,3.15-2.53,3.19,1.31,3.34,2.66h-.99c-.17-.8-.8-1.77-2.39-1.77s-2.11.8-2.11,1.56c0,.85.46,1.29,2.32,1.75,2.7.65,3.36,1.54,3.36,2.96,0,1.71-1.41,2.79-3.42,2.79-2.18,0-3.4-1.14-3.67-2.85h1.01Z" style="fill:#231f20; stroke-width:0px;"/><path d="m241.2,101.89c-.63,2.13-2.18,3.72-5.02,3.72-3.82,0-5.83-3.04-5.83-6.78s1.98-6.86,5.85-6.86c2.89,0,4.58,1.61,5.02,3.84h-1.06c-.61-1.71-1.71-2.85-4.01-2.85-3.29,0-4.65,3-4.65,5.85s1.35,5.83,4.73,5.83c2.17,0,3.25-1.14,3.91-2.75h1.06Z" style="fill:#231f20; stroke-width:0px;"/><path d="m251.58,100.7c0,2.64-1.46,5-4.29,5-2.58,0-4.18-2.11-4.18-4.98s1.5-4.98,4.27-4.98c2.53,0,4.2,1.98,4.2,4.96Zm-7.43.02c0,2.24,1.2,4.07,3.21,4.07s3.17-1.69,3.17-4.07c0-2.24-1.12-4.07-3.21-4.07s-3.17,1.79-3.17,4.07Z" style="fill:#231f20; stroke-width:0px;"/><path d="m261.21,102.69c0,.93.02,2.39.02,2.77h-.95c-.04-.25-.06-.87-.06-1.63-.4,1.1-1.37,1.86-3.04,1.86-1.39,0-3.12-.55-3.12-3.44v-6.29h.97v6.04c0,1.39.44,2.72,2.3,2.72,2.11,0,2.89-1.18,2.89-3.88v-4.88h.99v6.73Z" style="fill:#231f20; stroke-width:0px;"/><path d="m264.48,98.55c0-1.6-.02-2.28-.02-2.58h.97c.02.28.04.91.04,2.11.55-1.42,1.75-2.26,3.31-2.34v1.04c-1.98.13-3.31,1.48-3.31,3.76v4.92h-.99v-6.92Z" style="fill:#231f20; stroke-width:0px;"/><path d="m270.94,102.84c.32,1.22,1.2,1.96,2.68,1.96,1.67,0,2.36-.78,2.36-1.82s-.46-1.6-2.56-2.11c-2.47-.59-3.08-1.35-3.08-2.6s.99-2.53,3.15-2.53,3.19,1.31,3.34,2.66h-.99c-.17-.8-.8-1.77-2.39-1.77s-2.11.8-2.11,1.56c0,.85.46,1.29,2.32,1.75,2.7.65,3.36,1.54,3.36,2.96,0,1.71-1.41,2.79-3.42,2.79-2.18,0-3.4-1.14-3.67-2.85h1.01Z" style="fill:#231f20; stroke-width:0px;"/><path d="m279.77,100.83c.02,2.43,1.23,3.95,3.06,3.95s2.38-1.01,2.7-1.79h1.03c-.4,1.25-1.42,2.7-3.76,2.7-2.91,0-4.03-2.49-4.03-4.9,0-2.74,1.35-5.05,4.14-5.05s3.86,2.51,3.86,4.31c0,.27,0,.53-.02.78h-6.97Zm5.96-.85c-.02-1.86-1.03-3.32-2.87-3.32-1.96,0-2.83,1.35-3.04,3.32h5.91Z" style="fill:#231f20; stroke-width:0px;"/><path d="m295.77,90.63v19.81h-.97v-19.81h.97Z" style="fill:#231f20; stroke-width:0px;"/><path d="m303.94,105.46v-.06c0-1.58,1.31-3.51,3.82-5.45,2.15-1.67,2.7-2.18,2.7-3.76,0-1.35-.74-2.53-2.55-2.53-1.69,0-2.56.82-2.89,2.62h-1.01c.25-2.09,1.56-3.55,3.89-3.55,2.55,0,3.63,1.73,3.63,3.4,0,1.94-.82,2.6-3.13,4.48-1.82,1.5-2.94,2.68-3.33,3.88h6.97l-.17.97h-7.94Z" style="fill:#231f20; stroke-width:0px;"/><path d="m322.16,99.12c0,2.89-.74,6.57-4.08,6.57s-4.08-3.4-4.08-6.48.87-6.48,4.14-6.48,4.03,3.4,4.03,6.38Zm-7.07.11c0,2.43.51,5.51,2.98,5.51s3-2.94,3-5.62c0-2.39-.47-5.45-2.92-5.45s-3.06,2.79-3.06,5.57Z" style="fill:#231f20; stroke-width:0px;"/><path d="m324.25,105.46v-.06c0-1.58,1.31-3.51,3.82-5.45,2.15-1.67,2.7-2.18,2.7-3.76,0-1.35-.74-2.53-2.55-2.53-1.69,0-2.56.82-2.89,2.62h-1.01c.25-2.09,1.56-3.55,3.89-3.55,2.55,0,3.63,1.73,3.63,3.4,0,1.94-.82,2.6-3.13,4.48-1.82,1.5-2.94,2.68-3.33,3.88h6.97l-.17.97h-7.94Z" style="fill:#231f20; stroke-width:0px;"/><path d="m341.58,93.93h-5.38c-.13,1.22-.49,3.53-.65,4.31.57-.7,1.44-1.22,2.85-1.22,2.17,0,3.7,1.46,3.7,4.14,0,2.45-1.25,4.52-4.07,4.52-2.07,0-3.55-1.22-3.91-3.27h1.04c.32,1.31,1.27,2.34,2.92,2.34,1.98,0,2.95-1.39,2.95-3.53,0-1.8-.78-3.25-2.72-3.25-1.73,0-2.45.72-3,1.9l-.97-.29c.4-1.65.84-5.15,1.01-6.63h6.35l-.13.97Z" style="fill:#231f20; stroke-width:0px;"/><path d="m234.77,28.79v7.89h3.93v-7.89h-3.93Z" style="fill:#231f20; stroke-width:0px;"/><polygon points="238.7 44.87 238.7 85.12 234.77 85.12 234.77 48.8 230.82 48.8 230.82 44.87 238.7 44.87" style="fill:#231f20; stroke-width:0px;"/><rect x="238.7" y="44.87" width=".01" height="3.93" style="fill:#231f20; stroke-width:0px;"/><path d="m167.29,26.87v34.84c0,1.02-.32,1.2-1.28,1.2h-62.53c-.98,0-1.27-.2-1.27-1.21V26.86c0-.98.32-1.14,1.23-1.14h62.64c.91,0,1.22.19,1.22,1.14Z" style="stroke-width:0px;"/><path d="m92.3,87.82c-2.55,0-3.37-1.35-2.22-3.65l7.52-15.06c.34-.69.73-.96,1.52-.96h70.95c.78,0,1.19.25,1.53.94l7.61,15.27c1.03,2.08.16,3.45-2.18,3.45h-84.74Zm80.04-8.76c1.36,0,1.41-.07.8-1.29-1.12-2.25-2.28-4.47-3.35-6.74-.38-.82-.82-1.13-1.77-1.13-22.31.03-44.61.03-66.92,0-.8,0-1.27.2-1.63.97-1.08,2.31-2.26,4.57-3.39,6.85-.64,1.28-.6,1.33.85,1.33h75.4Z" style="stroke-width:0px;"/><path d="m99.37,66.81c-1.03,0-1.32-.24-1.31-1.3,0,0,.02-26.84.03-40.27,0-2.34,1.04-3.39,3.36-3.39h66.33c2.31,0,3.35,1.05,3.35,3.4l.03,40.27c0,1.07-.31,1.29-1.32,1.29,0,0-58.75-.04-70.46,0Zm2.78-42.15c-.93,0-1.27.17-1.27,1.2v36.85c0,1.07.3,1.29,1.32,1.28h64.8c.99,0,1.34-.19,1.33-1.27V25.87c0-1.01-.31-1.21-1.26-1.21h-64.92Z" style="stroke-width:0px;"/><path d="m168.26,77.26l-67.81.21c-.79,0-1.3-.83-.94-1.53l1.98-3.89c.18-.35.54-.57.94-.57h64.38c.43,0,.82.26.98.66l1.46,3.68c.27.69-.23,1.44-.97,1.44Z" style="stroke-width:0px;"/><path d="m143.36,85.34h-18.18c-.38,0-.67-.34-.61-.72l.45-2.76c.05-.3.31-.52.61-.52h17.44c.32,0,.58.24.62.56l.29,2.76c.04.37-.25.69-.62.69Z" style="fill:#fff; stroke-width:0px;"/><text transform="translate(103.89 29.5)" style="font-family:CourierNewPSMT, &apos;Courier New&apos;; font-size:2.44px;"><tspan x="0" y="0" style="fill:#5bba5e;">In [1]: from</tspan><tspan x="17.55" y="0" style="fill:#9acf8a;"> </tspan><tspan x="19.02" y="0" style="fill:#9f74b2;">microscopy</tspan><tspan x="33.65" y="0" style="fill:#9acf8a;"> </tspan><tspan x="35.11" y="0" style="fill:#5bba5e;">import</tspan><tspan x="43.89" y="0" style="fill:#9acf8a;"> </tspan><tspan x="45.35" y="0" style="fill:#fff;">analysis</tspan></text><text transform="translate(103.89 34.15)" style="font-family:CourierNewPSMT, &apos;Courier New&apos;; font-size:2.44px;"><tspan x="0" y="0" style="fill:#5bba5e;">In [2]:</tspan><tspan x="10.24" y="0" style="fill:#9acf8a;"> </tspan><tspan x="11.7" y="0" style="fill:#fff;">img =</tspan><tspan x="19.02" y="0" style="fill:#9acf8a;"> </tspan><tspan x="20.48" y="0" style="fill:#fff;">analysis.</tspan><tspan x="33.65" y="0" style="fill:#61bcc6;">imread</tspan><tspan x="42.42" y="0" style="fill:#fff;">(</tspan><tspan x="43.89" y="0" style="fill:#fcb216;">”bobiac.tif”</tspan><tspan x="61.44" y="0" style="fill:#fff;">)</tspan></text><rect x="115.77" y="57.26" width="1.18" height="2.44" style="fill:#424142; stroke-width:0px;"/><text transform="translate(103.89 59.1)" style="fill:#5bba5e; font-family:CourierNewPSMT, &apos;Courier New&apos;; font-size:2.44px;"><tspan x="0" y="0">In [4]:</tspan></text><text transform="translate(103.89 38.8)" style="font-family:CourierNewPSMT, &apos;Courier New&apos;; font-size:2.44px;"><tspan x="0" y="0" style="fill:#5bba5e;">In [3]:</tspan><tspan x="10.24" y="0" style="fill:#9acf8a;"> </tspan><tspan x="11.7" y="0" style="fill:#fff;">analysis.</tspan><tspan x="24.87" y="0" style="fill:#61bcc6;">imshow</tspan><tspan x="33.65" y="0" style="fill:#fff;">(img)</tspan></text><polygon points="134.87 54.57 134.87 54.58 134.72 54.58 134.04 54.57 134.04 54.57 134.72 54.57 134.87 54.57" style="fill:#5bba5e; stroke:#fff; stroke-miterlimit:10; stroke-width:.1px;"/><polygon points="134.82 44.27 134.82 48.33 134.77 48.33 134.77 44.28 134.82 44.27" style="fill:#5bba5e; stroke:#fff; stroke-miterlimit:10; stroke-width:.1px;"/><rect x="134.77" y="44.25" width=".05" height="4.08" style="fill:#5bba5e; stroke:#fff; stroke-miterlimit:10; stroke-width:.1px;"/><rect x="134.72" y="54.57" width=".16" height=".01" style="fill:#5bba5e; stroke:#fff; stroke-miterlimit:10; stroke-width:.1px;"/><path d="m157.87,54.37c0,.16,0,.32,0,.48l-23-.27h0s-.16-.01-.16-.01h-.68s-22.7-.09-22.7-.09c0-.18,0-1.32,0-1.5,0-.08.01-.13.1-.15.09-.03.18-.08.27-.11.1-.03.14-.08.13-.18,0-.29,0-.57,0-.86,0-.09.03-.12.12-.12h.66c.08,0,.11.03.11.11,0,.08,0,.15,0,.23,0,.09.03.12.12.12.17,0,.34,0,.5,0,.12,0,.14.02.14.14v.33c0,.08-.02.17.03.25.04,0,.08,0,.12,0h.78c.13,0,.14.01.14.14v1.5c0,.07.03.1.1.1.08,0,.16.01.24-.01.05-.12.03-.25.04-.37.02-.45.06-.89.09-1.34.02-.33.02-.66.05-.99,0-.14,0-.27.02-.41.01-.32.05-.64.06-.96.02-.33.03-.65.05-.98.03-.38.06-.75.06-1.12,0-.28.13-.48.33-.65,0,0,.19.18.25.3.09.11.07.25.07.37.03.5.06,1.01.09,1.51.01.17.02.34.03.5.02.35.03.7.06,1.05,0,.14,0,.28.02.42.02.32.03.64.05.96.02.32.06.64.06.96,0,.18.03.37.02.55,0,.07,0,.13.04.2.02,0,.04.01.06.01.12,0,.17.01.16-.15,0-.12,0-.24,0-.36,0-.08.02-.13.1-.14.11-.01.14-.08.13-.18,0-.14.01-1.5.01-1.79,0-.05-.03-.12,0-.15.04-.05.11-.07.18-.09.47-.18.94-.36,1.42-.54.08-.03.1-.07.1-.14-.01-.12.01-.25-.03-.37,0-.01-.01-.02-.01-.03.08-.21.04-.43.04-.64,0-.17.26-.44.39-.52,0,0,.2.11.27.2.04.05.07.08.09.13.03.07.05.12.04.2-.02.18-.01.37,0,.56,0,.03.02.06.04.09l-.02.1c0,.11,0,.22,0,.32,0,.07.02.1.09.12.26.1.52.19.77.29.26.1.51.2.76.29.08.03.1.08.1.15s-.04.14-.05.21c0,.29,0,.57,0,.86,0,.07.06.12.04.19-.04.16-.02.32-.02.48,0,.24,0,.21.23.22.09,0,.12-.04.12-.12,0-.18,0-.36,0-.54,0-.09.04-.13.12-.12.18.01.16-.05.16-.17v-6.26c0-.12.07-.19.17-.23.04-.01.07-.01.1-.02.05-.02.11-.04.09-.11-.02-.1,0-.2-.04-.3-.06-.16,0-.24.17-.28.12-.03.22-.08.32-.15.16-.12.32-.22.48-.33.06-.05.12-.06.19,0,.11.09.24.16.35.24.15.1.29.21.47.25.06.01.15,0,.16.1,0,.06.01.13-.01.19-.1.23-.04.34.18.41.02,0,.03.01.04.01.06,0,.08.05.08.1.01.46-.04.92.04,1.37v5.18h.51c0-1.86.01-3.87.01-5.73v-.06c0-.07.03-.1.1-.1h.37c.07,0,.1.03.1.1v.09c0,.16.02.17.17.17h1.73c.05,0,.1,0,.15-.02.02-.08.01-.15.01-.23,0-.08.03-.11.11-.11.11,0,.22,0,.33,0,.13,0,.15.01.15.15,0,.83,0,1.66,0,2.49v2.13c0,.14,0,.28,0,.42v.31c.14.05.24.12.24.25v.25c0,.19.04.23.22.25.03,0,.06,0,.1,0,.03-.05.03-.11.03-.16,0-.1,0-.2,0-.3,0-.07.03-.12.09-.13.21,0,.27-.12.24-.3,0-.05.02-.1.07-.1.14.01.13-.08.13-.18v-7.49c0-.23-.04-.25.23-.24.06,0,.1-.03.12-.09.02-.06.01-.09.01-.14h0s-.05-.03-.08-.03c-.12,0-.13-.03-.13-.14,0-.11,0-.22-.02-.33.08-.04.87-.03,1.03-.03.16,0,.33.05.47-.09.07.02.12-.03.17-.07v-2.47h.1v2.49s.1.07.17.05c.02,0,.05,0,.06.01.04.1.14.08.22.08.35,0,.71,0,1.06-.01.02,0,.06,0,.09,0,.06.01.11.03.09.12-.02.09-.01.18,0,.27,0,.08-.03.11-.11.12-.04,0-.07.02-.11.03v.08c.01.11.05.15.16.15.22,0,.21,0,.21.2v6.83c0,.15.01.17.16.17h1.04s.09-7.19.09-7.19c.01-.03.04-.04.12-.06l.56-.15.06-.02-.08,9.1h.05l.08-9.11h.04s.02-.01.02-.01l3.22.2c.16,0,.18.03.18.19v8.59c0,.05,0,.11.02.15.06.02.13.01.19.01.06,0,.1-.04.1-.1v-.19c0-.08.07-.14.14-.14h1.73c.08,0,.14.06.14.14v.46c.08.04.14.04.21,0,0-.02.01-.04.01-.06v-.85c0-.06-.01-.11,0-.16.03-.16.02-.31,0-.46,0-.04-.01-.06,0-.1.05-.12-.01-.26.09-.37.01-.01,0-.04,0-.06,0-.08,0-.16,0-.24,0-.1.02-.19-.01-.28-.04-.1-.02-.17.06-.21,0-.06-.01-.1.01-.14.08-.15.09-.32.14-.48.01-.04.04-.09.05-.13.02-.07.11-.08.14-.01.04.07.05.16.06.2.04.14.05.28.12.41.03.05.01.1.02.15,0,0,.12.06.06.2-.02.03-.02.06-.02.09v.42s0,.1.03.13c.06.08.05.16.06.25.02.1,0,.19,0,.29-.02.18.02.36,0,.54-.02.49,0,.97,0,1.46,0,.1.04.13.15.12.13-.02.26-.02.39,0,.11.02.16-.02.15-.12,0-.48,0-.96,0-1.45-.02-.73-.01-1.46-.02-2.19,0-.04,0-.08.04-.1.1-.04.08-.12.09-.2,0-.05-.02-.11.03-.14.08-.04.08-.09.08-.16,0-.06-.01-.12.01-.15.04-.04.07-.03.1-.03q.14,0,.18-.14c.03-.14.09-.26.19-.37.13-.15.34-.19.46-.33,0,0,.06.12.19.16.27.1.4.3.45.56.02.1.06.12.15.12.13,0,.14.01.14.13,0,.07.04.16.08.21.04.06.03.13.03.19,0,.06,0,.12.07.14.05.02.05.06.05.1,0,.54,0,1.08,0,1.62-.02.73,0,1.45-.02,2.17,0,.09.04.12.12.12.16,0,.32,0,.47,0,.08,0,.14-.07.14-.14v-1.31c0-.06.01-.11.05-.15.1-.11.19-.23.28-.33.11-.12.2-.26.33-.37.19.18.38.35.57.52.04.03.02.06.02.1v.6c.09.04.17.04.26,0,0-.16,0-.31,0-.47,0-.1.04-.13.13-.12.21,0,.41,0,.62,0,.07,0,.14,0,.21.04.01.12.04.25.03.37-.02.31.08.59.16.88.02.09.07.11.15.11h.69c.1,0,.17-.08.17-.17v-2.39c0-.14.02-.17.15-.2.04,0,.08-.01.11-.01.23.02.41-.11.61-.19.05-.02.07-.06.05-.1-.08-.15.05-.23.12-.31.08-.06.14-.07.21-.04.05.02.1.06.12.11.04.07.08.17.06.21-.03.07,0,.11.06.13.14.06.27.12.41.17.05.03.12,0,.17,0,.03,0,.07,0,.1,0,.17.03.19.05.19.22,0,.7,0,1.39,0,2.09,0,.09.01.17.08.24.02.02.04.04.05.06.06.22.23.19.39.19.05,0,.07-.03.09-.06.04-.08.1-.15.16-.22.04-.06.06-.12.05-.19-.01-.18.02-.35-.04-.53-.03-.08.05-.15.16-.15.3,0,.59,0,.88,0,.17,0,.23-.03.26-.22.04-.02.09-.03.13-.02.14,0,.28,0,.42,0,.1,0,.19-.08.17-.17-.03-.2.06-.3.23-.36.07-.03.1-.08.13-.14.06-.16.14-.32.31-.41.1-.06.18-.16.13-.3-.02-.05.07-.14.13-.14.06,0,.13.08.11.14-.04.14.02.22.12.28.18.1.28.26.33.44.03.09.1.13.17.16.14.06.19.14.18.29-.02.17.04.22.22.23.16,0,.32-.03.48.02,0,0,.08.22.28.22.28,0,.55,0,.82,0,.11,0,.19.01.22.12-.02.09-.05.18-.04.28,0,.21.02.43,0,.64,0,.05,0,.1.04.14.05.05.06.11.06.17Z" style="fill:#5bba5e; stroke:#fff; stroke-miterlimit:10; stroke-width:.1px;"/><path d="m212.85,91.46v1.86h.99v-1.86h-.99Z" style="fill:#231f20; stroke-width:0px;"/><polygon points="213.84 95.96 213.84 105.46 212.85 105.46 212.85 96.95 211.97 96.95 211.97 95.96 213.84 95.96" style="fill:#231f20; stroke-width:0px;"/><path d="m101.7,91.46v1.86h.99v-1.86h-.99Z" style="fill:#231f20; stroke-width:0px;"/><polygon points="102.69 95.96 102.69 105.46 101.7 105.46 101.7 96.95 100.82 96.95 100.82 95.96 102.69 95.96" style="fill:#231f20; stroke-width:0px;"/><path d="m86.26,91.46v1.86h.99v-1.86h-.99Z" style="fill:#231f20; stroke-width:0px;"/><polygon points="87.25 95.96 87.25 105.46 86.26 105.46 86.26 96.95 85.38 96.95 85.38 95.96 87.25 95.96" style="fill:#231f20; stroke-width:0px;"/></svg>